<svg xmlns="http://www.w3.org/2000/svg" width="1200" height="800" viewBox="0 0 1200 800" role="img" aria-labelledby="title desc">
  <title id="title">Medina Clean case study origin visual</title>
  <desc id="desc">A calm operational diagram showing a website request becoming a business system foundation.</desc>
  <rect width="1200" height="800" fill="#f7f6f0"/>
  <rect x="92" y="86" width="1016" height="628" rx="18" fill="#ffffff" stroke="#d9e1e7" stroke-width="3"/>
  <rect x="138" y="136" width="392" height="494" rx="12" fill="#eef2f3"/>
  <rect x="180" y="185" width="212" height="18" rx="9" fill="#177b70"/>
  <rect x="180" y="226" width="296" height="13" rx="6.5" fill="#5f6d7a" opacity=".55"/>
  <rect x="180" y="255" width="244" height="13" rx="6.5" fill="#5f6d7a" opacity=".45"/>
  <rect x="180" y="320" width="264" height="96" rx="10" fill="#ffffff" stroke="#d9e1e7" stroke-width="2"/>
  <rect x="208" y="348" width="128" height="12" rx="6" fill="#14202a"/>
  <rect x="208" y="379" width="190" height="10" rx="5" fill="#5f6d7a" opacity=".45"/>
  <rect x="180" y="444" width="264" height="96" rx="10" fill="#ffffff" stroke="#d9e1e7" stroke-width="2"/>
  <rect x="208" y="472" width="156" height="12" rx="6" fill="#14202a"/>
  <rect x="208" y="503" width="178" height="10" rx="5" fill="#5f6d7a" opacity=".45"/>
  <path d="M558 400h114" stroke="#177b70" stroke-width="5" stroke-linecap="round"/>
  <path d="m654 376 24 24-24 24" fill="none" stroke="#177b70" stroke-width="5" stroke-linecap="round" stroke-linejoin="round"/>
  <rect x="704" y="136" width="320" height="494" rx="12" fill="#14202a"/>
  <rect x="750" y="190" width="214" height="16" rx="8" fill="#e6c26e"/>
  <rect x="750" y="232" width="192" height="12" rx="6" fill="#dbe5eb" opacity=".72"/>
  <rect x="750" y="282" width="228" height="70" rx="10" fill="#ffffff" opacity=".1" stroke="#ffffff" stroke-opacity=".16" stroke-width="2"/>
  <rect x="778" y="308" width="130" height="11" rx="5.5" fill="#ffffff" opacity=".78"/>
  <rect x="750" y="376" width="228" height="70" rx="10" fill="#ffffff" opacity=".1" stroke="#ffffff" stroke-opacity=".16" stroke-width="2"/>
  <rect x="778" y="402" width="158" height="11" rx="5.5" fill="#ffffff" opacity=".78"/>
  <rect x="750" y="470" width="228" height="70" rx="10" fill="#ffffff" opacity=".1" stroke="#ffffff" stroke-opacity=".16" stroke-width="2"/>
  <rect x="778" y="496" width="118" height="11" rx="5.5" fill="#ffffff" opacity=".78"/>
  <circle cx="180" cy="614" r="28" fill="#177b70"/>
  <circle cx="1024" cy="142" r="30" fill="#b7791f"/>
</svg>
