<svg xmlns="http://www.w3.org/2000/svg" width="1200" height="800" viewBox="0 0 1200 800" role="img" aria-labelledby="title desc">
  <title id="title">Lead workflow visual</title>
  <desc id="desc">A structured service-business lead workflow from intake to recurring operations.</desc>
  <rect width="1200" height="800" fill="#f7f6f0"/>
  <rect x="92" y="96" width="1016" height="608" rx="18" fill="#ffffff" stroke="#d9e1e7" stroke-width="3"/>
  <rect x="150" y="170" width="190" height="144" rx="12" fill="#eef2f3" stroke="#d9e1e7" stroke-width="2"/>
  <rect x="188" y="218" width="104" height="13" rx="6.5" fill="#14202a"/>
  <rect x="188" y="252" width="114" height="10" rx="5" fill="#5f6d7a" opacity=".5"/>
  <rect x="405" y="170" width="190" height="144" rx="12" fill="#14202a"/>
  <rect x="443" y="218" width="96" height="13" rx="6.5" fill="#ffffff"/>
  <rect x="443" y="252" width="112" height="10" rx="5" fill="#dbe5eb" opacity=".68"/>
  <rect x="660" y="170" width="190" height="144" rx="12" fill="#eef2f3" stroke="#d9e1e7" stroke-width="2"/>
  <rect x="698" y="218" width="116" height="13" rx="6.5" fill="#14202a"/>
  <rect x="698" y="252" width="104" height="10" rx="5" fill="#5f6d7a" opacity=".5"/>
  <rect x="150" y="442" width="190" height="144" rx="12" fill="#eef2f3" stroke="#d9e1e7" stroke-width="2"/>
  <rect x="188" y="490" width="126" height="13" rx="6.5" fill="#14202a"/>
  <rect x="188" y="524" width="96" height="10" rx="5" fill="#5f6d7a" opacity=".5"/>
  <rect x="405" y="442" width="190" height="144" rx="12" fill="#eef2f3" stroke="#d9e1e7" stroke-width="2"/>
  <rect x="443" y="490" width="106" height="13" rx="6.5" fill="#14202a"/>
  <rect x="443" y="524" width="120" height="10" rx="5" fill="#5f6d7a" opacity=".5"/>
  <rect x="660" y="442" width="190" height="144" rx="12" fill="#177b70"/>
  <rect x="698" y="490" width="106" height="13" rx="6.5" fill="#ffffff"/>
  <rect x="698" y="524" width="116" height="10" rx="5" fill="#ffffff" opacity=".7"/>
  <path d="M340 242h65" stroke="#177b70" stroke-width="5" stroke-linecap="round"/>
  <path d="m390 222 20 20-20 20" fill="none" stroke="#177b70" stroke-width="5" stroke-linecap="round" stroke-linejoin="round"/>
  <path d="M595 242h65" stroke="#177b70" stroke-width="5" stroke-linecap="round"/>
  <path d="m645 222 20 20-20 20" fill="none" stroke="#177b70" stroke-width="5" stroke-linecap="round" stroke-linejoin="round"/>
  <path d="M755 314v128" stroke="#b7791f" stroke-width="5" stroke-linecap="round"/>
  <path d="m735 426 20 20 20-20" fill="none" stroke="#b7791f" stroke-width="5" stroke-linecap="round" stroke-linejoin="round"/>
  <path d="M660 514h-65" stroke="#177b70" stroke-width="5" stroke-linecap="round"/>
  <path d="m610 494-20 20 20 20" fill="none" stroke="#177b70" stroke-width="5" stroke-linecap="round" stroke-linejoin="round"/>
  <path d="M405 514h-65" stroke="#177b70" stroke-width="5" stroke-linecap="round"/>
  <path d="m355 494-20 20 20 20" fill="none" stroke="#177b70" stroke-width="5" stroke-linecap="round" stroke-linejoin="round"/>
  <rect x="910" y="220" width="118" height="318" rx="59" fill="#e6c26e" opacity=".9"/>
</svg>
